<?xml version="1.0" standalone="no"?>
<!DOCTYPE svg PUBLIC "-//W3C//DTD SVG 20010904//EN"
 "http://www.w3.org/TR/2001/REC-SVG-20010904/DTD/svg10.dtd">
<svg version="1.0" xmlns="http://www.w3.org/2000/svg"
 width="1181.000000pt" height="1181.000000pt" viewBox="0 0 1181.000000 1181.000000"
 preserveAspectRatio="xMidYMid meet">
<metadata>
Created by potrace 1.11, written by Peter Selinger 2001-2013
</metadata>
<g transform="translate(0.000000,1181.000000) scale(0.100000,-0.100000)"
fill="#000000" stroke="none">
<path d="M5570 11802 c0 -4 -28 -9 -62 -9 -62 -2 -130 -7 -238 -19 -30 -3 -68
-7 -85 -8 -16 -2 -34 -5 -40 -6 -12 -4 -47 -8 -95 -12 -19 -2 -40 -7 -47 -11
-6 -4 -18 -4 -27 -1 -9 3 -23 1 -31 -6 -8 -7 -22 -9 -31 -6 -9 3 -21 3 -27 -1
-12 -8 -40 -12 -89 -15 -16 -1 -28 -6 -28 -10 0 -5 -9 -7 -19 -3 -11 3 -22 1
-26 -5 -4 -6 -15 -8 -25 -5 -10 3 -21 1 -25 -5 -4 -6 -15 -8 -26 -5 -11 4 -19
2 -19 -5 0 -7 -7 -9 -16 -6 -9 3 -21 3 -27 -1 -16 -10 -37 -15 -64 -15 -13 0
-23 -5 -23 -10 0 -6 -7 -8 -15 -5 -8 4 -17 2 -20 -3 -3 -5 -12 -7 -19 -4 -8 3
-17 0 -21 -5 -3 -6 -11 -9 -16 -5 -5 3 -16 0 -24 -6 -8 -6 -19 -9 -25 -5 -5 3
-10 1 -10 -5 0 -7 -8 -9 -20 -5 -12 4 -20 2 -20 -5 0 -7 -7 -10 -15 -7 -8 4
-17 2 -20 -3 -3 -5 -12 -7 -20 -3 -8 3 -15 0 -15 -7 0 -7 -8 -9 -21 -5 -15 5
-19 4 -15 -4 6 -9 -27 -17 -56 -12 -5 0 -8 -3 -8 -9 0 -5 -7 -7 -15 -4 -8 4
-15 1 -15 -6 0 -7 -8 -9 -21 -5 -16 5 -19 4 -14 -6 6 -9 3 -11 -8 -6 -10 3
-17 2 -17 -4 0 -6 -9 -8 -21 -4 -16 5 -19 4 -14 -6 6 -9 3 -11 -8 -6 -10 4
-17 2 -17 -4 0 -6 -7 -9 -15 -5 -8 3 -15 1 -15 -5 0 -6 -4 -8 -9 -4 -5 3 -13
0 -16 -6 -4 -5 -14 -8 -22 -5 -9 4 -11 2 -7 -6 5 -8 2 -9 -9 -5 -10 3 -17 3
-17 -2 0 -4 -7 -8 -15 -9 -8 -1 -22 -3 -30 -4 -8 -1 -15 -5 -15 -9 0 -5 -7 -5
-17 -2 -12 5 -14 3 -8 -7 6 -10 4 -12 -8 -7 -10 4 -17 2 -17 -4 0 -6 -7 -8
-16 -5 -10 4 -13 2 -8 -6 5 -8 2 -9 -9 -5 -10 3 -17 2 -17 -3 0 -5 -7 -6 -17
-3 -12 5 -14 3 -8 -7 6 -10 4 -12 -8 -7 -10 3 -17 2 -17 -4 0 -6 -4 -7 -10 -4
-5 3 -10 1 -10 -5 0 -7 -7 -10 -15 -6 -8 3 -15 1 -15 -5 0 -6 -4 -7 -10 -4 -5
3 -10 1 -10 -5 0 -6 -4 -8 -10 -5 -5 3 -10 1 -10 -5 0 -7 -7 -10 -15 -6 -8 3
-15 1 -15 -5 0 -6 -4 -7 -10 -4 -5 3 -10 1 -10 -5 0 -7 -7 -9 -16 -6 -10 4
-13 2 -8 -6 5 -8 2 -9 -10 -5 -10 4 -15 3 -11 -3 5 -9 -15 -15 -37 -11 -5 0
-8 -4 -8 -10 0 -5 -4 -7 -10 -4 -5 3 -10 1 -10 -5 0 -6 -4 -9 -9 -6 -5 3 -14
-1 -21 -10 -7 -8 -19 -13 -27 -10 -8 3 -11 1 -8 -4 6 -9 -8 -14 -27 -11 -5 0
-8 -4 -8 -10 0 -6 -7 -8 -16 -5 -10 4 -13 2 -8 -6 5 -8 2 -9 -10 -5 -9 4 -15
3 -12 -2 3 -5 -1 -12 -10 -15 -10 -4 -13 -2 -9 7 4 6 1 5 -7 -4 -7 -9 -19 -14
-27 -11 -8 3 -11 0 -7 -7 7 -11 -6 -15 -34 -11 -8 1 -11 -2 -7 -6 8 -8 -57
-44 -80 -44 -7 0 -13 -4 -13 -10 0 -5 -10 -14 -21 -21 -17 -9 -20 -8 -14 3 3
7 0 5 -8 -4 -8 -10 -17 -15 -20 -11 -4 3 -7 1 -7 -6 0 -7 -4 -10 -9 -7 -5 3
-12 -1 -15 -10 -4 -9 -13 -14 -22 -10 -8 3 -13 2 -10 -3 6 -9 -18 -24 -39 -26
-6 0 -21 -11 -33 -23 -13 -13 -27 -20 -32 -17 -6 4 -10 2 -10 -4 0 -6 -10 -15
-21 -22 -17 -9 -20 -8 -14 3 4 7 -2 3 -12 -8 -25 -30 -80 -64 -69 -44 4 8 0 6
-9 -5 -9 -11 -21 -19 -26 -17 -5 1 -12 -5 -15 -13 -3 -8 -10 -12 -15 -9 -5 3
-9 1 -9 -4 0 -5 -12 -17 -26 -27 -18 -12 -24 -13 -19 -4 3 8 -1 5 -10 -6 -9
-11 -21 -19 -26 -17 -5 1 -9 -2 -9 -7 0 -5 -14 -20 -32 -32 -17 -13 -28 -16
-23 -9 5 8 -8 -2 -28 -23 -21 -20 -42 -38 -47 -38 -6 -1 -14 -2 -19 -3 -5 0
-13 -5 -18 -10 -5 -5 -2 -6 7 -2 8 4 6 1 -4 -8 -10 -8 -22 -13 -27 -11 -4 3
-11 0 -15 -6 -5 -8 -2 -10 7 -5 8 4 5 1 -5 -8 -10 -8 -22 -13 -27 -11 -4 3
-11 0 -15 -6 -5 -8 -2 -10 7 -5 8 4 5 1 -5 -8 -10 -8 -22 -13 -27 -11 -4 3
-11 0 -15 -6 -5 -8 -3 -9 7 -4 12 8 12 6 0 -8 -8 -10 -16 -16 -18 -13 -2 2
-17 -10 -33 -26 -17 -16 -34 -27 -39 -23 -5 3 -13 0 -17 -6 -5 -8 -3 -9 7 -4
12 8 12 6 0 -8 -8 -10 -15 -16 -17 -14 -2 2 -22 -13 -44 -35 -23 -21 -46 -37
-52 -35 -7 1 -12 -3 -13 -9 0 -10 -35 -50 -35 -40 0 3 -19 -15 -41 -39 -23
-25 -44 -43 -47 -40 -3 2 -11 -3 -18 -13 -7 -9 -17 -17 -23 -17 -6 0 -10 -3
-8 -7 4 -11 -66 -78 -82 -78 -8 0 -12 -3 -8 -6 7 -8 -53 -70 -65 -67 -4 2 -7
-3 -5 -10 1 -6 -4 -11 -11 -9 -8 1 -11 -1 -8 -6 7 -12 -98 -114 -108 -105 -4
5 -6 1 -4 -7 2 -9 -3 -14 -12 -12 -8 2 -12 0 -8 -4 11 -10 -72 -105 -84 -97
-7 3 -8 1 -4 -5 4 -7 2 -12 -3 -12 -6 0 -11 -6 -11 -14 0 -7 -8 -20 -17 -27
-15 -12 -16 -12 -8 1 5 9 5 12 -1 7 -5 -5 -9 -14 -9 -20 -1 -7 -6 -11 -13 -10
-7 2 -11 -1 -9 -5 1 -5 -9 -19 -23 -33 -15 -13 -17 -17 -5 -9 12 9 8 1 -10
-20 -45 -53 -49 -57 -40 -41 5 10 4 12 -4 7 -6 -4 -9 -11 -6 -16 3 -5 -13 -28
-36 -51 -23 -23 -36 -39 -28 -35 8 4 4 -1 -9 -12 -12 -11 -22 -23 -22 -27 0
-14 -48 -64 -55 -57 -4 4 -6 3 -4 -3 4 -17 -12 -45 -22 -39 -5 3 -9 2 -8 -3 3
-17 -2 -29 -22 -53 -11 -14 -17 -19 -13 -11 5 9 3 12 -5 7 -6 -4 -9 -11 -7
-15 7 -10 -29 -63 -37 -54 -4 3 -7 -1 -7 -10 0 -9 -5 -17 -11 -17 -5 0 -7 -5
-4 -10 3 -6 -1 -13 -9 -16 -9 -3 -14 -10 -11 -14 3 -5 -10 -23 -27 -41 -18
-18 -26 -29 -18 -24 15 9 -16 -33 -35 -47 -6 -5 -6 -8 -1 -8 6 0 1 -7 -10 -16
-10 -8 -12 -12 -4 -8 13 7 13 6 0 -12 -8 -10 -23 -27 -35 -37 -11 -10 -14 -15
-6 -11 10 5 8 -3 -5 -26 -10 -18 -25 -34 -31 -37 -7 -3 -10 -9 -7 -14 3 -5 0
-9 -6 -9 -6 0 -8 -4 -5 -10 3 -5 1 -10 -5 -10 -6 0 -9 -4 -6 -9 3 -5 -1 -12
-10 -15 -8 -3 -12 -10 -9 -16 3 -5 1 -10 -5 -10 -6 0 -8 -5 -5 -10 3 -6 -1
-13 -9 -16 -9 -3 -13 -10 -10 -15 3 -5 0 -9 -6 -9 -6 0 -9 -4 -6 -9 3 -5 -1
-11 -9 -15 -8 -3 -12 -12 -9 -21 4 -8 -1 -17 -10 -21 -9 -3 -13 -10 -10 -15 3
-5 0 -9 -6 -9 -6 0 -8 -4 -5 -10 3 -5 1 -10 -5 -10 -6 0 -8 -4 -5 -10 3 -5 1
-10 -6 -10 -7 0 -9 -3 -6 -7 4 -3 -1 -12 -11 -20 -9 -8 -11 -11 -4 -8 10 5 9
-1 -2 -24 -9 -17 -21 -31 -27 -31 -6 0 -7 -4 -4 -10 7 -11 -25 -70 -38 -70 -4
0 -5 -4 -2 -10 7 -11 -24 -70 -37 -70 -4 0 -5 -7 -2 -15 4 -8 1 -15 -6 -15 -6
0 -8 -4 -5 -10 3 -5 1 -10 -5 -10 -6 0 -8 -4 -5 -10 3 -5 2 -10 -4 -10 -6 0
-8 -6 -5 -14 3 -7 -2 -16 -10 -19 -9 -4 -13 -13 -10 -22 3 -8 1 -15 -6 -15 -6
0 -9 -4 -5 -9 3 -5 -2 -16 -11 -25 -8 -9 -12 -20 -9 -26 3 -5 1 -10 -5 -10 -6
0 -8 -4 -5 -10 3 -5 2 -10 -4 -10 -6 0 -8 -7 -5 -15 4 -8 1 -15 -6 -15 -6 0
-8 -4 -5 -10 3 -5 1 -10 -5 -10 -6 0 -9 -4 -5 -9 3 -5 1 -12 -5 -16 -6 -4 -8
-11 -5 -16 4 -5 2 -9 -4 -9 -6 0 -8 -7 -5 -15 4 -8 1 -15 -6 -15 -6 0 -8 -4
-5 -10 3 -5 1 -10 -5 -10 -6 0 -9 -4 -5 -9 3 -5 1 -12 -5 -16 -6 -4 -8 -11 -5
-16 4 -5 2 -9 -4 -9 -6 0 -8 -7 -5 -15 4 -8 1 -15 -6 -15 -6 0 -9 -4 -5 -9 3
-5 1 -12 -5 -16 -6 -4 -8 -11 -5 -16 4 -5 2 -9 -4 -9 -6 0 -8 -7 -5 -15 4 -8
1 -15 -6 -15 -7 0 -10 -7 -6 -15 3 -8 1 -15 -4 -15 -5 0 -7 -7 -4 -15 4 -8 1
-15 -5 -15 -6 0 -8 -7 -4 -17 5 -11 3 -14 -6 -8 -10 5 -11 2 -6 -14 4 -13 2
-21 -5 -21 -6 0 -9 -4 -5 -9 3 -5 1 -12 -4 -16 -6 -3 -8 -12 -4 -20 3 -8 0
-15 -7 -15 -7 0 -10 -7 -7 -15 4 -8 2 -17 -4 -20 -5 -4 -7 -11 -4 -16 4 -5 1
-9 -5 -9 -7 0 -9 -8 -5 -20 4 -12 2 -20 -5 -20 -6 0 -9 -4 -5 -9 3 -5 1 -12
-5 -16 -6 -4 -8 -11 -5 -16 4 -5 3 -15 -2 -21 -9 -16 -14 -37 -14 -60 0 -10
-5 -18 -10 -18 -6 0 -8 -4 -4 -9 3 -5 1 -12 -4 -16 -5 -3 -8 -14 -6 -25 2 -11
0 -20 -5 -20 -4 0 -7 -8 -5 -17 1 -10 -2 -23 -7 -30 -5 -7 -7 -17 -4 -22 4 -5
2 -12 -3 -16 -6 -3 -8 -12 -4 -20 3 -8 0 -15 -5 -15 -6 0 -9 -9 -7 -20 2 -11
-1 -22 -6 -26 -5 -3 -7 -14 -4 -25 4 -11 2 -19 -5 -19 -7 0 -9 -8 -5 -19 3
-11 2 -22 -4 -25 -5 -3 -8 -14 -6 -24 1 -9 -2 -23 -7 -29 -6 -7 -8 -19 -5 -27
3 -8 3 -17 -1 -21 -4 -4 -8 -15 -8 -26 -1 -10 -3 -20 -4 -21 -3 -3 -8 -36 -14
-88 -2 -19 -5 -35 -6 -35 -3 0 -8 -30 -14 -90 -3 -22 -5 -40 -6 -40 -1 0 -3
-16 -5 -35 -2 -19 -4 -35 -5 -35 -1 0 -4 -18 -6 -40 -2 -22 -6 -62 -9 -90 -9
-80 -15 -155 -18 -222 -1 -34 -6 -65 -10 -69 -11 -11 -9 -672 2 -678 5 -4 9
-30 10 -59 0 -28 3 -81 6 -117 3 -36 7 -86 9 -111 1 -25 6 -50 9 -56 4 -6 5
-25 3 -42 -2 -17 0 -34 5 -36 4 -3 6 -18 5 -33 -2 -15 -1 -31 3 -37 3 -5 6
-21 7 -35 0 -14 3 -30 6 -36 4 -6 5 -19 4 -30 -2 -10 0 -24 5 -29 4 -6 8 -20
8 -30 -1 -11 2 -36 6 -55 3 -19 7 -44 8 -55 2 -11 6 -25 9 -31 4 -6 6 -21 3
-33 -2 -11 0 -21 5 -21 4 0 7 -8 5 -17 -1 -10 1 -22 5 -28 5 -5 9 -14 9 -20 1
-5 4 -23 7 -40 3 -16 7 -39 9 -50 2 -11 4 -20 5 -20 3 0 12 -41 13 -62 0 -13
5 -23 10 -23 5 0 7 -9 4 -20 -3 -11 -1 -20 5 -20 6 0 8 -9 5 -20 -3 -11 -1
-20 5 -20 6 0 8 -7 4 -15 -3 -8 -1 -15 4 -15 5 0 7 -6 4 -14 -3 -8 0 -17 5
-21 6 -3 9 -11 5 -16 -3 -5 -1 -15 4 -22 6 -7 11 -15 11 -19 1 -5 1 -9 2 -10
3 -10 9 -36 12 -50 2 -10 6 -20 9 -24 4 -3 4 -12 1 -20 -3 -8 0 -14 6 -14 7 0
11 -6 10 -13 -1 -6 1 -21 5 -32 5 -11 10 -27 14 -35 3 -8 4 -21 3 -28 -1 -6 3
-12 10 -12 6 0 9 -7 5 -15 -3 -8 -1 -15 4 -15 5 0 7 -7 4 -15 -4 -8 -1 -15 6
-15 7 0 10 -7 6 -15 -3 -8 -1 -15 5 -15 6 0 7 -5 4 -10 -3 -6 -2 -10 4 -10 6
0 8 -7 5 -15 -4 -8 -1 -15 6 -15 7 0 10 -6 7 -14 -3 -7 0 -19 6 -25 6 -6 7
-11 2 -11 -6 0 -4 -4 3 -9 7 -4 14 -18 15 -29 1 -12 5 -22 9 -22 4 0 4 -7 1
-17 -5 -12 -3 -14 7 -8 10 6 12 4 7 -8 -3 -10 -2 -17 4 -17 6 0 7 -4 4 -10 -3
-5 -1 -10 5 -10 7 0 10 -7 6 -15 -3 -8 -1 -15 5 -15 6 0 8 -4 4 -9 -3 -5 -1
-12 5 -16 6 -4 8 -11 5 -16 -4 -5 -1 -9 5 -9 6 0 8 -4 5 -10 -3 -5 -1 -10 5
-10 7 0 9 -7 6 -16 -4 -10 -2 -13 6 -8 8 5 9 2 5 -9 -3 -10 -2 -17 3 -17 6 0
9 -3 8 -7 -1 -5 5 -22 15 -39 9 -17 13 -34 10 -38 -4 -3 -1 -6 6 -6 7 0 9 -4
6 -10 -3 -5 -1 -10 5 -10 6 0 8 -4 5 -10 -3 -5 -1 -10 5 -10 6 0 8 -5 5 -10
-3 -6 -1 -10 5 -10 6 0 8 -4 5 -10 -3 -5 -1 -10 6 -10 7 0 9 -3 6 -7 -4 -3 1
-15 10 -26 13 -15 14 -19 3 -13 -12 6 -12 5 1 -6 9 -7 14 -19 12 -25 -3 -7 2
-16 11 -19 9 -3 13 -10 10 -15 -3 -5 0 -9 6 -9 6 0 8 -4 5 -10 -3 -5 -1 -10 6
-10 7 0 9 -3 6 -6 -4 -4 3 -20 15 -37 13 -19 16 -28 7 -23 -7 4 -6 1 3 -7 10
-8 15 -17 11 -20 -3 -4 -1 -7 6 -7 7 0 10 -4 6 -9 -3 -5 1 -16 9 -24 8 -8 12
-17 9 -21 -3 -3 2 -8 11 -12 9 -3 13 -10 10 -15 -3 -5 0 -9 6 -9 6 0 9 -4 6
-9 -3 -5 3 -20 14 -33 11 -14 17 -28 13 -31 -3 -4 2 -9 11 -13 9 -3 13 -10 10
-15 -3 -5 0 -9 6 -9 6 0 9 -4 6 -9 -4 -5 -1 -11 6 -13 6 -2 12 -11 13 -19 3
-13 63 -111 85 -136 6 -7 8 -13 3 -13 -4 0 2 -7 13 -15 10 -8 15 -15 10 -15
-6 0 -1 -7 10 -16 10 -8 12 -12 4 -8 -14 8 17 -36 58 -80 12 -14 13 -17 2 -12
-8 4 -4 -2 10 -14 14 -12 18 -19 10 -15 -10 4 -9 1 3 -8 9 -8 17 -19 17 -25 0
-6 8 -16 18 -21 9 -6 13 -11 9 -11 -8 0 1 -13 35 -51 10 -10 15 -19 10 -19 -4
0 0 -6 8 -13 8 -7 21 -24 29 -40 8 -15 21 -27 28 -27 8 0 12 -4 8 -9 -3 -6 3
-14 12 -20 10 -6 15 -11 11 -11 -9 0 13 -30 53 -71 15 -16 25 -30 23 -32 -2
-2 14 -23 36 -47 22 -24 40 -46 40 -49 0 -3 11 -17 25 -31 66 -67 95 -100 89
-100 -4 0 28 -34 70 -76 43 -42 72 -73 64 -68 -7 4 -5 -2 6 -14 10 -12 23 -19
29 -15 5 3 8 2 5 -3 -7 -12 98 -115 108 -106 4 4 4 2 1 -4 -8 -14 17 -37 28
-26 5 4 5 2 2 -4 -4 -7 1 -18 10 -25 14 -12 16 -12 8 0 -5 10 -4 12 3 7 7 -4
12 -13 12 -19 0 -7 13 -24 30 -39 16 -14 30 -25 30 -24 0 2 25 -21 55 -51 30
-30 55 -51 55 -47 0 4 9 -5 21 -20 11 -14 25 -24 30 -21 5 4 9 -2 9 -11 0 -10
2 -15 5 -12 3 3 24 -12 47 -33 23 -21 46 -35 52 -32 6 3 8 3 4 -2 -9 -9 42
-56 53 -49 4 2 11 -1 15 -7 4 -8 3 -9 -4 -5 -7 4 -12 5 -12 3 0 -2 19 -17 42
-33 24 -16 47 -35 51 -41 4 -7 12 -13 17 -13 5 0 24 -14 42 -30 18 -17 38 -30
45 -30 7 0 13 -4 13 -10 0 -5 5 -10 10 -10 6 0 23 -11 38 -25 15 -14 32 -25
39 -25 6 0 13 -3 15 -7 4 -10 75 -63 83 -63 4 0 13 -7 22 -15 8 -8 19 -12 25
-9 6 4 8 2 5 -3 -6 -10 13 -23 29 -22 4 0 10 -3 13 -9 8 -12 119 -82 131 -82
6 0 10 -4 10 -10 0 -5 4 -10 8 -10 5 0 47 -23 95 -51 47 -28 89 -50 93 -49 4
1 10 -2 13 -7 12 -18 103 -63 115 -56 6 3 8 3 4 -2 -8 -9 73 -56 85 -48 4 2 7
0 7 -5 0 -10 60 -38 73 -34 4 1 7 -3 7 -10 0 -6 3 -8 7 -5 3 4 13 1 22 -6 19
-17 153 -73 163 -69 5 1 8 -2 8 -7 0 -7 49 -29 80 -36 3 -1 21 -9 40 -17 66
-30 113 -50 124 -53 6 -1 18 -5 26 -8 70 -29 183 -66 190 -62 5 3 10 0 12 -5
2 -6 10 -12 18 -14 8 -1 62 -17 120 -35 58 -18 112 -35 120 -37 8 -1 65 -16
125 -33 61 -16 121 -32 135 -35 29 -6 104 -22 140 -30 47 -11 185 -37 215 -41
17 -2 39 -6 50 -8 24 -6 84 -15 145 -22 25 -3 52 -8 60 -10 8 -2 47 -6 85 -10
39 -3 88 -8 111 -11 22 -2 78 -6 124 -9 45 -2 85 -6 88 -10 8 -8 687 -6 695 2
4 3 35 8 70 9 34 1 85 5 112 7 113 11 191 19 215 23 14 2 45 6 70 9 48 6 85
12 85 15 0 2 73 10 103 11 12 1 22 5 22 10 0 5 7 6 15 3 8 -4 23 -3 33 1 9 4
31 9 47 11 44 6 59 9 70 15 6 4 18 5 28 4 9 -2 17 0 17 4 0 4 8 7 18 8 27 1
76 10 92 17 8 3 26 8 40 10 45 9 66 14 118 30 29 8 52 13 52 11 0 -2 15 2 34
10 18 8 36 11 40 8 3 -4 6 -1 6 6 0 7 5 9 10 6 6 -4 17 -1 25 5 8 7 15 10 15
7 0 -4 19 1 43 9 23 9 49 17 57 19 8 2 16 4 18 5 1 2 5 3 10 4 51 13 132 42
132 49 0 4 5 5 10 2 6 -3 16 -3 23 2 6 4 14 8 17 8 5 1 131 48 188 71 18 7 36
14 40 15 4 0 16 6 27 12 11 6 27 12 35 13 8 2 16 8 18 14 2 5 8 8 13 5 4 -3
20 2 34 11 14 9 25 12 25 8 0 -5 4 -4 8 2 4 5 28 18 55 28 26 10 47 22 47 27
0 5 3 8 8 7 10 -4 95 34 103 45 3 5 9 8 13 7 12 -2 156 73 156 82 0 5 4 7 9 4
5 -3 25 5 45 19 20 13 36 21 36 17 0 -4 4 -2 8 3 4 6 36 25 72 44 36 18 71 41
78 49 6 9 12 13 12 9 0 -7 47 19 60 33 3 3 17 11 32 19 15 8 36 21 46 30 10 9
24 17 32 19 8 2 17 8 18 13 2 5 10 9 18 9 9 0 12 5 8 12 -4 7 -3 8 4 4 6 -4
20 2 31 13 11 11 21 18 23 15 2 -2 18 9 34 24 16 15 34 29 39 30 27 10 63 37
59 44 -3 4 1 8 9 8 14 0 116 73 128 91 3 6 10 11 15 11 5 0 8 4 6 10 -1 5 2 7
7 4 5 -4 14 2 20 11 6 10 11 15 11 11 0 -8 27 12 62 45 10 9 21 17 24 17 3 0
17 11 32 25 15 13 61 53 102 87 41 35 96 84 123 110 26 26 47 46 47 44 0 -3
20 14 44 37 24 23 42 46 38 51 -3 5 -1 6 4 3 11 -6 164 145 164 163 0 6 4 9
10 5 5 -3 16 7 24 22 8 15 15 24 16 20 0 -5 16 11 36 34 20 24 45 51 55 60 11
9 19 19 19 23 0 3 14 19 30 34 17 16 30 32 30 36 0 4 15 23 33 41 57 58 77 83
77 94 0 6 4 11 9 11 5 0 35 35 65 78 31 42 68 90 81 105 14 15 23 33 19 39 -4
6 -3 8 2 5 10 -6 141 182 136 195 -1 5 2 8 7 8 11 0 77 101 73 112 -1 5 3 8 8
8 6 0 15 10 20 23 6 12 18 34 28 49 31 48 72 120 72 128 0 5 4 10 9 12 5 1 11
10 13 18 2 8 6 17 9 20 13 12 70 120 62 120 -4 0 -3 4 3 8 11 7 58 90 59 104
0 3 4 10 8 15 11 11 41 76 39 86 -1 4 2 7 8 7 5 0 10 4 10 9 0 5 10 30 22 57
12 27 21 52 20 57 -1 4 2 7 8 7 5 0 10 5 10 11 0 5 9 29 19 52 26 57 112 270
115 282 1 6 4 15 7 20 8 12 29 76 30 90 0 6 4 15 8 20 5 6 12 24 16 40 9 34
10 35 18 55 14 36 42 126 43 140 1 8 8 32 17 53 9 20 14 37 12 37 -2 0 2 18
10 41 8 23 12 45 9 50 -3 5 -1 9 4 9 5 0 9 6 10 13 1 15 9 52 18 80 4 12 8 31
10 42 2 11 7 34 12 50 5 17 8 38 6 47 -1 10 1 18 5 18 4 0 8 6 9 13 0 6 3 28
7 47 4 19 8 44 9 55 2 11 6 29 9 40 4 11 9 38 13 60 11 72 14 89 24 145 5 30
12 77 15 105 3 27 7 61 9 75 15 99 29 256 30 337 1 29 5 53 9 53 5 0 6 163 4
363 -3 335 -6 408 -22 557 -3 30 -8 75 -11 100 -3 25 -7 61 -10 80 -2 19 -7
53 -10 75 -2 22 -14 94 -25 160 -12 66 -23 129 -24 140 -9 57 -48 231 -54 235
-3 3 -7 21 -9 40 -1 19 -7 37 -12 38 -6 2 -8 8 -5 12 5 8 -27 141 -42 180 -4
8 -7 17 -7 20 -9 41 -31 108 -39 118 -5 6 -7 12 -3 12 3 0 0 16 -8 35 -8 19
-13 35 -10 35 3 0 0 9 -6 21 -6 11 -13 30 -16 42 -2 12 -8 23 -14 25 -6 2 -8
7 -5 12 3 5 0 21 -7 37 -6 15 -12 30 -13 33 -18 61 -30 90 -37 90 -4 0 -7 3
-6 8 3 7 -17 65 -33 94 -5 10 -9 25 -9 33 0 8 -5 15 -10 15 -6 0 -9 3 -8 8 3
15 -15 62 -24 62 -5 0 -7 3 -4 8 2 4 -11 39 -30 77 -19 38 -34 74 -34 81 0 6
-7 17 -15 24 -9 7 -13 15 -11 17 6 6 -65 147 -76 151 -4 2 -8 12 -8 23 0 10
-5 19 -12 19 -6 0 -8 3 -5 7 4 3 3 11 -2 17 -4 6 -23 38 -41 71 -18 33 -37 63
-42 66 -5 3 -9 9 -8 13 2 11 -53 106 -62 106 -4 0 -7 3 -6 8 3 12 -24 62 -34
62 -4 0 -7 3 -6 8 3 13 -38 72 -46 65 -4 -4 -4 0 -1 9 4 9 -1 21 -12 29 -10 8
-19 21 -21 29 -2 8 -7 17 -11 20 -5 3 -16 19 -25 37 -9 18 -22 36 -30 40 -8 4
-15 10 -15 13 0 17 -15 39 -22 34 -5 -3 -8 -2 -7 3 4 15 -33 74 -42 68 -6 -4
-10 1 -10 10 0 9 -6 23 -12 30 -21 23 -31 37 -61 83 -15 23 -32 42 -37 42 -6
0 -10 4 -10 10 0 9 -12 26 -55 76 -11 13 -31 38 -45 56 -13 18 -41 50 -61 71
-20 20 -34 37 -32 37 3 0 0 7 -7 15 -7 8 -17 12 -23 8 -5 -3 -7 -1 -3 5 3 5
-6 20 -21 32 -16 12 -21 18 -13 14 13 -7 13 -5 1 9 -7 9 -18 14 -24 10 -6 -3
-7 -1 -3 5 3 6 1 14 -6 19 -7 4 -28 25 -46 46 -17 21 -32 34 -33 30 0 -4 -4 2
-10 15 -5 14 -13 20 -20 16 -7 -4 -9 -3 -6 3 4 6 -1 17 -10 24 -14 12 -16 12
-8 0 5 -10 4 -12 -3 -7 -7 4 -12 13 -12 20 0 6 -16 28 -37 47 -20 18 -32 28
-28 20 5 -9 4 -12 -3 -7 -7 4 -12 13 -12 20 0 8 -8 20 -17 27 -17 13 -17 13
-3 -6 14 -19 14 -19 -2 -6 -10 7 -18 19 -18 25 0 6 -13 23 -30 38 -16 14 -30
24 -30 22 0 -3 -34 29 -76 70 -42 42 -81 73 -87 69 -5 -3 -7 -1 -3 5 3 6 -14
25 -39 43 -25 18 -45 36 -45 41 0 5 -8 12 -17 15 -10 4 -24 14 -31 22 -8 9
-10 10 -7 3 4 -8 -14 7 -39 33 -26 25 -51 43 -56 40 -6 -3 -10 1 -10 10 0 9
-4 14 -9 10 -6 -3 -15 4 -21 16 -7 11 -14 18 -17 15 -3 -2 -16 7 -30 22 -14
15 -22 20 -17 12 5 -9 1 -7 -10 5 -10 11 -23 19 -28 17 -5 -1 -11 5 -14 13 -4
8 -10 15 -16 15 -5 0 -21 11 -35 24 -15 14 -30 23 -35 20 -4 -3 -8 0 -8 5 0 6
-7 11 -16 11 -8 0 -12 5 -9 10 3 6 -1 10 -9 10 -9 0 -16 5 -16 11 0 5 -4 8 -9
5 -5 -3 -11 1 -15 9 -3 8 -12 15 -20 15 -7 0 -17 7 -20 16 -3 8 -10 12 -16 9
-5 -3 -10 -1 -10 5 0 6 -4 8 -10 5 -5 -3 -10 -2 -10 4 0 6 -15 18 -32 27 -18
9 -36 22 -40 28 -4 6 -8 7 -8 2 0 -6 -7 -1 -16 10 -8 10 -13 12 -9 4 4 -8 -1
-6 -9 4 -9 11 -16 16 -16 11 0 -5 -7 0 -16 11 -8 10 -12 12 -8 4 4 -8 -4 -3
-19 13 -27 28 -43 36 -32 15 4 -7 0 -5 -8 4 -8 10 -17 15 -20 11 -4 -3 -7 -2
-7 4 0 6 -11 14 -25 17 -14 4 -23 10 -20 15 2 5 -2 12 -11 15 -10 4 -13 2 -7
-7 4 -6 -13 4 -37 23 -24 19 -41 29 -36 22 7 -11 4 -11 -13 0 -12 7 -21 16
-21 21 0 4 -4 5 -10 2 -5 -3 -10 -1 -10 5 0 6 -4 8 -10 5 -5 -3 -10 -1 -10 6
0 7 -3 9 -7 6 -3 -4 -12 1 -20 11 -8 9 -12 11 -8 5 4 -9 1 -11 -9 -7 -9 3 -13
10 -10 15 3 5 -3 6 -12 2 -12 -4 -15 -3 -10 5 5 8 2 10 -8 6 -10 -4 -16 -1
-16 7 0 7 -3 9 -7 6 -3 -4 -12 1 -20 11 -8 9 -12 11 -8 4 5 -10 1 -10 -19 -1
-14 7 -23 16 -20 20 3 5 -3 6 -12 2 -12 -4 -15 -3 -10 5 5 8 2 10 -8 6 -10 -4
-16 -1 -16 7 0 7 -3 9 -7 6 -3 -4 -12 1 -20 11 -8 9 -12 11 -8 5 4 -9 1 -11
-9 -7 -9 3 -13 10 -10 15 3 5 -2 6 -10 3 -9 -3 -16 -1 -16 6 0 6 -4 8 -10 5
-5 -3 -10 -1 -10 5 0 6 -4 9 -9 6 -5 -3 -14 1 -21 10 -7 8 -19 13 -27 10 -7
-3 -13 -1 -13 5 0 6 -4 8 -9 5 -5 -3 -14 1 -21 9 -7 8 -17 12 -22 9 -5 -3 -16
2 -24 12 -9 11 -13 13 -9 6 4 -7 -8 -4 -29 8 -20 11 -36 17 -36 15 0 -3 -11 2
-25 11 -14 9 -25 13 -25 9 0 -4 -6 -2 -13 4 -8 6 -17 8 -20 4 -4 -3 -7 -1 -7
6 0 7 -4 10 -9 7 -5 -3 -14 1 -21 9 -7 8 -16 12 -21 9 -5 -2 -21 2 -37 10 -16
8 -32 12 -36 9 -3 -4 -6 -1 -6 6 0 7 -4 10 -9 6 -5 -3 -12 -1 -16 5 -4 6 -10
8 -15 5 -5 -3 -11 -1 -15 5 -4 6 -11 8 -16 5 -5 -4 -9 -2 -9 4 0 6 -6 8 -14 5
-8 -3 -17 0 -21 5 -3 6 -11 9 -16 6 -5 -4 -9 -1 -9 6 0 7 -3 10 -6 6 -4 -3
-22 0 -40 8 -19 8 -34 11 -34 8 0 -3 -6 0 -13 6 -8 6 -17 8 -20 4 -4 -3 -7 -1
-7 5 0 6 -7 9 -15 6 -8 -4 -15 -2 -15 3 0 5 -9 10 -20 11 -42 4 -50 6 -50 12
0 3 -14 7 -31 8 -18 1 -37 6 -43 9 -6 4 -15 8 -21 10 -5 1 -21 5 -35 8 -14 4
-31 7 -37 7 -7 1 -13 5 -13 9 0 4 -9 5 -20 2 -11 -3 -20 -1 -20 4 0 5 -10 10
-22 10 -27 2 -49 7 -63 14 -5 3 -26 6 -45 8 -19 2 -36 7 -38 11 -2 5 -10 6
-17 4 -8 -3 -20 -2 -27 3 -7 4 -22 9 -33 10 -26 2 -110 18 -125 23 -3 1 -16 1
-29 0 -13 -1 -21 3 -17 8 3 5 -9 8 -29 5 -19 -2 -35 0 -35 4 0 5 -12 9 -27 10
-83 4 -104 7 -109 14 -2 4 -16 6 -30 3 -14 -3 -30 -1 -37 3 -6 4 -27 8 -47 9
-33 3 -73 6 -195 19 -27 2 -80 5 -117 6 -38 1 -68 6 -68 10 0 5 -151 9 -335 9
-184 0 -335 -4 -335 -8z m4541 -1759 c13 -16 12 -17 -3 -4 -10 7 -18 15 -18
17 0 8 8 3 21 -13z"/>
<path d="M2219 10523 c-13 -16 -12 -17 4 -4 16 13 21 21 13 21 -2 0 -10 -8
-17 -17z"/>
<path d="M1954 10298 l-19 -23 23 19 c12 11 22 21 22 23 0 8 -8 2 -26 -19z"/>
<path d="M1824 10178 l-19 -23 23 19 c21 18 27 26 19 26 -2 0 -12 -10 -23 -22z"/>
<path d="M1669 10023 c-13 -16 -12 -17 4 -4 16 13 21 21 13 21 -2 0 -10 -8
-17 -17z"/>
<path d="M1624 9978 l-19 -23 23 19 c21 18 27 26 19 26 -2 0 -12 -10 -23 -22z"/>
<path d="M1509 9853 c-13 -16 -12 -17 4 -4 16 13 21 21 13 21 -2 0 -10 -8 -17
-17z"/>
</g>
</svg>
